# xmcd CD database file
#
# Track frame offsets:
#	150
#	19137
#	38300
#
# Disc length: 764 seconds
#
# Revision: 1
# Processed by: cddbd v1.5.1PL2 Copyright (c) Steve Scherf et al.
# Submitted via: CD2WAV32(JP) R3.22
#
DISCID=1402fa03
DTITLE=平安隆 - 満月の夕
DYEAR=2003
DGENRE=JPop
TTITLE0=満月の夕～ウチナーグチ(沖縄方言)ヴァージョン～
TTITLE1=満月の夕～コーラス・ヴァージョン～
TTITLE2=満月の夕～インスト・ヴァージョン～
EXTD=
EXTT0=
EXTT1=
EXTT2=
PLAYORDER=
